HIERARCHY
ROOT Hips
{
	OFFSET 0.00000 0.00000 0.00000
	CHANNELS 6 Xposition Yposition Zposition Zrotation Yrotation Xrotation 
	JOINT LHipJoint
	{
		OFFSET 0 0 0
		CHANNELS 3 Zrotation Yrotation Xrotation
		JOINT LeftUpLeg
		{
			OFFSET 1.62329 -1.80800 0.67318
			CHANNELS 3 Zrotation Yrotation Xrotation
			JOINT LeftLeg
			{
				OFFSET 2.57139 -7.06484 0.00000
				CHANNELS 3 Zrotation Yrotation Xrotation
				JOINT LeftFoot
				{
					OFFSET 2.52017 -6.92413 0.00000
					CHANNELS 3 Zrotation Yrotation Xrotation
					JOINT LeftToeBase
					{
						OFFSET 0.23295 -0.64001 2.10214
						CHANNELS 3 Zrotation Yrotation Xrotation
						End Site
						{
							OFFSET 0.00000 -0.00000 1.10139
						}
					}
				}
			}
		}
	}
	JOINT RHipJoint
	{
		OFFSET 0 0 0
		CHANNELS 3 Zrotation Yrotation Xrotation
		JOINT RightUpLeg
		{
			OFFSET -1.48061 -1.80800 0.67318
			CHANNELS 3 Zrotation Yrotation Xrotation
			JOINT RightLeg
			{
				OFFSET -2.63258 -7.23296 0.00000
				CHANNELS 3 Zrotation Yrotation Xrotation
				JOINT RightFoot
				{
					OFFSET -2.54779 -7.00000 0.00000
					CHANNELS 3 Zrotation Yrotation Xrotation
					JOINT RightToeBase
					{
						OFFSET -0.23067 -0.63376 2.12161
						CHANNELS 3 Zrotation Yrotation Xrotation
						End Site
						{
							OFFSET -0.00000 -0.00000 1.11000
						}
					}
				}
			}
		}
	}
	JOINT LowerBack
	{
		OFFSET 0 0 0
		CHANNELS 3 Zrotation Yrotation Xrotation
		JOINT Spine
		{
			OFFSET -0.02108 2.07573 -0.16981
			CHANNELS 3 Zrotation Yrotation Xrotation
			JOINT Spine1
			{
				OFFSET 0.05070 2.08439 -0.03141
				CHANNELS 3 Zrotation Yrotation Xrotation
				JOINT Neck
				{
					OFFSET 0 0 0
					CHANNELS 3 Zrotation Yrotation Xrotation
					JOINT Neck1
					{
						OFFSET -0.10731 1.60408 0.31370
						CHANNELS 3 Zrotation Yrotation Xrotation
						JOINT Head
						{
							OFFSET 0.08411 1.65679 -0.30822
							CHANNELS 3 Zrotation Yrotation Xrotation
							End Site
							{
								OFFSET 0.03911 1.69149 -0.14146
							}
						}
					}
				}
				JOINT LeftShoulder
				{
					OFFSET 0 0 0
					CHANNELS 3 Zrotation Yrotation Xrotation
					JOINT LeftArm
					{
						OFFSET 3.52315 0.73219 -0.54694
						CHANNELS 3 Zrotation Yrotation Xrotation
						JOINT LeftForeArm
						{
							OFFSET 5.32462 -0.00000 -0.00000
							CHANNELS 3 Zrotation Yrotation Xrotation
							JOINT LeftHand
							{
								OFFSET 3.48402 -0.00000 -0.00000
								CHANNELS 3 Zrotation Yrotation Xrotation
								JOINT LeftFingerBase
								{
									OFFSET 0 0 0
									CHANNELS 3 Zrotation Yrotation Xrotation
									JOINT LeftHandIndex1
									{
										OFFSET 0.57248 -0.00000 -0.00000
										CHANNELS 3 Zrotation Yrotation Xrotation
										End Site
										{
											OFFSET 0.46154 -0.00000 -0.00000
										}
									}
								}
								JOINT LThumb
								{
									OFFSET 0 0 0
									CHANNELS 3 Zrotation Yrotation Xrotation
									End Site
									{
										OFFSET 0.46859 -0.00000 0.46859
									}
								}
							}
						}
					}
				}
				JOINT RightShoulder
				{
					OFFSET 0 0 0
					CHANNELS 3 Zrotation Yrotation Xrotation
					JOINT RightArm
					{
						OFFSET -3.41766 0.93592 -0.10019
						CHANNELS 3 Zrotation Yrotation Xrotation
						JOINT RightForeArm
						{
							OFFSET -5.33589 -0.00000 -0.00000
							CHANNELS 3 Zrotation Yrotation Xrotation
							JOINT RightHand
							{
								OFFSET -3.64134 -0.00000 -0.00000
								CHANNELS 3 Zrotation Yrotation Xrotation
								JOINT RightFingerBase
								{
									OFFSET 0 0 0
									CHANNELS 3 Zrotation Yrotation Xrotation
									JOINT RightHandIndex1
									{
										OFFSET -0.73481 -0.00000 -0.00000
										CHANNELS 3 Zrotation Yrotation Xrotation
										End Site
										{
											OFFSET -0.59242 -0.00000 -0.00000
										}
									}
								}
								JOINT RThumb
								{
									OFFSET 0 0 0
									CHANNELS 3 Zrotation Yrotation Xrotation
									End Site
									{
										OFFSET -0.60147 -0.00000 0.60147
									}
								}
							}
						}
					}
				}
			}
		}
	}
}
MOTION
Frames: 6
Frame Time: .0083333
-0.051 18.0012 -0.689 0 0 0 0 0 0 -21 0 0 0 0 0 0 0 0 0 0 0 0 0 0 21 0 0 0 0 0 0 0 0 0 0 0 0 0 0 0 0 0 0 0 0 0 0 -16 0 0 21 0 0 11 0 0 0 -8 0 0 0 0 0 0 0 0 0 0 0 0 0 0 0 0 0 0 0 0 8 0 0 0 0 0 0 0 0 0 0 0 0 0 0 0 0 0
-0.0510 18.0012 -0.6890 1.0336 -14.0166 3.9156 0.0000 0.0000 0.0000 -22.0299 -1.5269 1.2552 0.3109 3.5848 9.9113 0.2467 5.5290 -13.0365 0.4260 -4.1887 -11.6081 0.0000 0.0000 0.0000 14.6372 11.9039 -6.1623 -1.6707 -8.1436 23.1512 -0.6233 5.0059 -14.0571 -0.1086 -2.1250 5.8513 -3.1624 -1.6412 1.1750 2.0226 -2.2212 0.0501 3.8838 -1.1057 -0.4064 -14.8411 -9.4979 -14.9358 8.2009 -11.4438 19.0785 3.6855 -5.5898 9.8736 0.0000 -0.0000 0.0000 -90.4456 8.3036 -6.0499 11.6133 -19.2221 -1.9731 -0.0000 -0.0000 2.2427 22.7179 16.7558 6.8824 -7.1250 0.0000 -0.0000 -4.9620 47.9938 -0.3674 0.0000 -0.0000 0.0000 84.2877 -9.2858 11.5685 -21.4310 32.3280 -6.2789 0.0000 0.0000 16.6932 -18.3684 4.8869 -1.6203 7.1250 -0.0000 -0.0000 6.2108 -24.8315 3.0454
-0.0501 18.0025 -0.6970 1.0518 -13.9624 3.9112 0.0000 0.0000 0.0000 -22.0385 -1.5996 1.2825 0.3066 3.5601 9.8423 0.2428 5.5617 -13.0039 0.4156 -4.1381 -11.4656 0.0000 0.0000 0.0000 14.6282 11.9387 -6.1823 -1.6713 -8.1449 23.1551 -0.6234 4.9309 -14.0587 -0.1118 -2.1558 5.9365 -3.1918 -1.6484 1.2733 2.0171 -2.2338 0.0251 3.8988 -1.1098 -0.4853 -14.8686 -9.4908 -14.9437 8.1917 -11.4299 19.1640 3.6886 -5.5869 9.9050 0.0000 0.0000 0.0000 -90.5733 8.2614 -6.1889 11.6705 -19.3086 -1.9920 -0.0000 -0.0000 2.2531 22.7305 16.8284 6.9153 -7.1250 0.0000 -0.0000 -4.9663 48.0730 -0.3774 0.0000 0.0000 0.0000 84.2887 -9.3043 12.0439 -21.6196 32.5444 -6.3800 0.0000 0.0000 16.1890 -18.6665 4.6747 -1.5771 7.1250 -0.0000 -0.0000 5.9943 -25.0453 2.9082
-0.0510 18.0030 -0.7038 1.0971 -13.9353 3.8922 0.0000 0.0000 0.0000 -22.0721 -1.6303 1.2945 0.3050 3.5505 9.8154 0.2420 5.5582 -12.9874 0.3969 -4.0448 -11.2027 0.0000 0.0000 0.0000 14.5971 12.0000 -6.1877 -1.6740 -8.1513 23.1746 -0.6268 4.8255 -14.0990 -0.1014 -2.0536 5.6538 -3.2431 -1.6444 1.3502 1.9802 -2.2314 0.0060 3.8924 -1.1068 -0.5477 -14.8398 -9.4858 -14.9425 8.1601 -11.4293 19.2528 3.6733 -5.5887 9.9322 0.0000 -0.0000 0.0000 -90.6443 8.2528 -6.2135 11.7574 -19.4398 -2.0208 -0.0000 -0.0000 2.0577 22.6400 16.7002 6.8345 -7.1250 0.0000 -0.0000 -5.0239 47.9234 -0.3632 0.0000 -0.0000 0.0000 84.3447 -9.2711 12.1453 -21.7411 32.6832 -6.4455 0.0000 0.0000 16.4829 -18.3805 4.9937 -1.6567 7.1250 -0.0000 -0.0000 6.1984 -24.7193 3.0555
-0.0519 18.0036 -0.7121 1.1145 -13.8665 3.9159 0.0000 0.0000 0.0000 -22.0553 -1.5802 1.2201 0.3019 3.5327 9.7657 0.2413 5.4439 -12.8710 0.3820 -3.9692 -10.9899 0.0000 0.0000 0.0000 14.5846 12.0222 -6.2302 -1.6771 -8.1584 23.1963 -0.6278 4.7832 -14.1110 -0.1128 -2.1653 5.9628 -3.2772 -1.6642 1.3873 1.9685 -2.2595 -0.0055 3.9015 -1.1200 -0.5768 -14.8962 -9.4697 -14.9455 8.2059 -11.4078 19.3160 3.7019 -5.5786 9.9592 0.0000 -0.0000 0.0000 -90.7479 8.2179 -6.1267 11.8940 -19.6455 -2.0665 -0.0000 -0.0000 1.7112 22.4259 16.6805 6.7557 -7.1250 0.0000 -0.0000 -5.2238 47.8711 -0.3710 0.0000 -0.0000 0.0000 84.3953 -9.1381 12.0730 -21.8389 32.7945 -6.4984 0.0000 0.0000 17.1230 -18.0077 5.3354 -1.7313 7.1250 -0.0000 -0.0000 6.4658 -24.3738 3.2409
-0.0519 18.0048 -0.7191 1.1152 -13.7673 3.9429 0.0000 0.0000 0.0000 -22.0308 -1.5726 1.1443 0.3016 3.5313 9.7615 0.2426 5.3276 -12.7863 0.3721 -3.9178 -10.8455 0.0000 0.0000 0.0000 14.5869 12.0392 -6.2533 -1.6786 -8.1618 23.2065 -0.6322 4.7183 -14.1622 -0.1217 -2.2485 6.1930 -3.2608 -1.6833 1.3940 1.9376 -2.2850 0.0015 3.8607 -1.1330 -0.5730 -14.9065 -9.4582 -14.9043 8.2744 -11.4085 19.2709 3.7292 -5.5736 9.9407 -0.0000 0.0000 0.0000 -90.8033 8.0993 -6.0603 11.9926 -19.7936 -2.0998 -0.0000 -0.0000 1.6157 22.2247 17.0041 6.8140 -7.1250 0.0000 -0.0000 -5.4909 48.1841 -0.4325 -0.0000 0.0000 0.0000 84.4702 -9.0565 12.1953 -22.0017 32.9789 -6.5868 0.0000 0.0000 17.2859 -17.9330 5.4038 -1.7457 7.1250 -0.0000 -0.0000 6.5192 -24.3047 3.2785
